<svg xmlns="http://www.w3.org/2000/svg" version="1.1" xmlns:xlink="http://www.w3.org/1999/xlink" xmlns:svgjs="http://svgjs.com/svgjs" width="1440" height="560" preserveAspectRatio="none" viewBox="0 0 1440 560"><g mask="url(&quot;#SvgjsMask1143&quot;)" fill="none"><rect width="1440" height="560" x="0" y="0" fill="url(#SvgjsLinearGradient1144)"></rect><path d="M 0,378 C 41.2,321 123.6,97.4 206,93 C 288.4,88.6 329.6,322.2 412,356 C 494.4,389.8 535.6,236.6 618,262 C 700.4,287.4 741.6,515.6 824,483 C 906.4,450.4 947.6,127.6 1030,99 C 1112.4,70.4 1154,358.8 1236,340 C 1318,321.2 1399.2,72 1440,5L1440 560L0 560z" fill="rgba(107, 76, 193, 1)"></path><path d="M 0,265 C 96,322.2 288,567.2 480,551 C 672,534.8 768,221.6 960,184 C 1152,146.4 1344,327.2 1440,363L1440 560L0 560z" fill="rgba(88, 32, 176, 1)"></path></g><defs><mask id="SvgjsMask1143"><rect width="1440" height="560" fill="#ffffff"></rect></mask><linearGradient x1="15.28%" y1="139.29%" x2="84.72%" y2="-39.29%" gradientUnits="userSpaceOnUse" id="SvgjsLinearGradient1144"><stop stop-color="#0e2a47" offset="0"></stop><stop stop-color="rgba(75, 7, 137, 1)" offset="1"></stop></linearGradient></defs></svg>