<svg xmlns="http://www.w3.org/2000/svg" version="1.1" xmlns:xlink="http://www.w3.org/1999/xlink" xmlns:svgjs="http://svgjs.com/svgjs" width="1440" height="560" preserveAspectRatio="none" viewBox="0 0 1440 560"><g mask="url(&quot;#SvgjsMask1003&quot;)" fill="none"><rect width="1440" height="560" x="0" y="0" fill="rgba(58, 33, 143, 1)"></rect><path d="M 0,242 C 57.6,196.4 172.8,12.6 288,14 C 403.2,15.4 460.8,224 576,249 C 691.2,274 748.8,143.4 864,139 C 979.2,134.6 1036.8,237.2 1152,227 C 1267.2,216.8 1382.4,115.8 1440,88L1440 560L0 560z" fill="rgba(102, 63, 164, 1)"></path><path d="M 0,280 C 96,334 288,547.4 480,550 C 672,552.6 768,310 960,293 C 1152,276 1344,430.6 1440,465L1440 560L0 560z" fill="rgba(94, 43, 183, 1)"></path></g><defs><mask id="SvgjsMask1003"><rect width="1440" height="560" fill="#ffffff"></rect></mask></defs></svg>